{
	"accessors":[{
		"bufferView":0,
		"type":"SCALAR",
		"componentType":5123,
		"count":7164,
		"byteOffset":0,
		"min":[0],
		"max":[2741]
	},
	{
		"bufferView":1,
		"type":"VEC3",
		"componentType":5126,
		"count":2742,
		"byteOffset":0,
		"min":[-20.350017547607423,
		-19.524904251098634,
		-3.402543067932129],
		"max":[21.35301971435547,
		11.379613876342774,
		2.6071691513061525]
	},
	{
		"bufferView":1,
		"type":"VEC2",
		"componentType":5126,
		"count":2742,
		"byteOffset":12,
		"min":[0.0025442177429795267,
		-0.9935377240180969],
		"max":[0.9987483024597168,
		-0.001116037368774414]
	},
	{
		"bufferView":2,
		"type":"SCALAR",
		"componentType":5123,
		"count":7059,
		"byteOffset":0,
		"min":[0],
		"max":[2681]
	},
	{
		"bufferView":3,
		"type":"VEC3",
		"componentType":5126,
		"count":2682,
		"byteOffset":0,
		"min":[-23.25945472717285,
		-22.16055679321289,
		-3.7614424228668215],
		"max":[15.65115737915039,
		18.27402114868164,
		3.676222085952759]
	},
	{
		"bufferView":3,
		"type":"VEC2",
		"componentType":5126,
		"count":2682,
		"byteOffset":12,
		"min":[0.002343932166695595,
		-0.9983416795730591],
		"max":[0.9859604239463806,
		-0.004844546318054199]
	},
	{
		"bufferView":4,
		"type":"SCALAR",
		"componentType":5123,
		"count":7353,
		"byteOffset":0,
		"min":[0],
		"max":[2783]
	},
	{
		"bufferView":5,
		"type":"VEC3",
		"componentType":5126,
		"count":2784,
		"byteOffset":0,
		"min":[-21.872888565063478,
		-20.47061538696289,
		-3.684549570083618],
		"max":[23.25969886779785,
		18.792255401611329,
		3.7621662616729738]
	},
	{
		"bufferView":5,
		"type":"VEC2",
		"componentType":5126,
		"count":2784,
		"byteOffset":12,
		"min":[0.00008409097790718079,
		-0.9994453191757202],
		"max":[0.9994561672210693,
		-0.00022339820861816406]
	},
	{
		"bufferView":6,
		"type":"SCALAR",
		"componentType":5123,
		"count":9495,
		"byteOffset":0,
		"min":[0],
		"max":[3612]
	},
	{
		"bufferView":7,
		"type":"VEC3",
		"componentType":5126,
		"count":3613,
		"byteOffset":0,
		"min":[-19.99321746826172,
		-20.791109085083009,
		-3.402543067932129],
		"max":[21.23358154296875,
		22.16055679321289,
		3.7414438724517824]
	},
	{
		"bufferView":7,
		"type":"VEC2",
		"componentType":5126,
		"count":3613,
		"byteOffset":12,
		"min":[0.00008513592183589935,
		-0.9958863854408264],
		"max":[0.9995884299278259,
		-0.00004601478576660156]
	}],
	"nodes":[{
		"name":"Model",
		"translation":[0.0,
		0.0,
		0.0],
		"rotation":[-0.6644630432128906,
		-0.2418447583913803,
		0.2418447583913803,
		-0.6644630432128906],
		"scale":[1.0,
		1.0,
		1.0],
		"children":[1,
		2,
		3,
		4]
	},
	{
		"name":"Model-material2",
		"mesh":0
	},
	{
		"name":"Model-material1",
		"mesh":1
	},
	{
		"name":"Model-material3",
		"mesh":2
	},
	{
		"name":"Model-material0",
		"mesh":3
	}],
	"asset":{
		"version":"2.0",
		"generator":"Created using the official Cinema 4D glTF Exporter 1.000x284978"
	},
	"textures":[{
		"sampler":0,
		"source":0
	},
	{
		"sampler":1,
		"source":1
	},
	{
		"sampler":2,
		"source":2
	},
	{
		"sampler":3,
		"source":3
	}],
	"scenes":[{
		"nodes":[0]
	}],
	"samplers":[{
		"magFilter":9729,
		"minFilter":9729,
		"wrapS":10497,
		"wrapT":10497
	},
	{
		"magFilter":9729,
		"minFilter":9729,
		"wrapS":10497,
		"wrapT":10497
	},
	{
		"magFilter":9729,
		"minFilter":9729,
		"wrapS":10497,
		"wrapT":10497
	},
	{
		"magFilter":9729,
		"minFilter":9729,
		"wrapS":10497,
		"wrapT":10497
	}],
	"meshes":[{
		"primitives":[{
			"attributes":{
				"POSITION":1,
				"TEXCOORD_0":2
			},
			"indices":0,
			"material":0
		}],
		"name":"Model-material2"
	},
	{
		"primitives":[{
			"attributes":{
				"POSITION":4,
				"TEXCOORD_0":5
			},
			"indices":3,
			"material":1
		}],
		"name":"Model-material1"
	},
	{
		"primitives":[{
			"attributes":{
				"POSITION":7,
				"TEXCOORD_0":8
			},
			"indices":6,
			"material":2
		}],
		"name":"Model-material3"
	},
	{
		"primitives":[{
			"attributes":{
				"POSITION":10,
				"TEXCOORD_0":11
			},
			"indices":9,
			"material":3
		}],
		"name":"Model-material0"
	}],
	"buffers":[{
		"uri":"data:application/octet-stream;base64,",
		"byteLength":69168
	},
	{
		"uri":"data:application/octet-stream;base64,",
		"byteLength":67760
	},
	{
		"uri":"data:application/octet-stream;base64,",
		"byteLength":70388
	},
	{
		"uri":"data:application/octet-stream;base64,",
		"byteLength":91252
	}],
	"bufferViews":[{
		"buffer":0,
		"byteOffset":0,
		"byteLength":14328,
		"target":34963
	},
	{
		"buffer":0,
		"byteOffset":14328,
		"byteLength":54840,
		"target":34962,
		"byteStride":20
	},
	{
		"buffer":1,
		"byteOffset":0,
		"byteLength":14118,
		"target":34963
	},
	{
		"buffer":1,
		"byteOffset":14120,
		"byteLength":53640,
		"target":34962,
		"byteStride":20
	},
	{
		"buffer":2,
		"byteOffset":0,
		"byteLength":14706,
		"target":34963
	},
	{
		"buffer":2,
		"byteOffset":14708,
		"byteLength":55680,
		"target":34962,
		"byteStride":20
	},
	{
		"buffer":3,
		"byteOffset":0,
		"byteLength":18990,
		"target":34963
	},
	{
		"buffer":3,
		"byteOffset":18992,
		"byteLength":72260,
		"target":34962,
		"byteStride":20
	}],
	"images":[{
		"uri":"data:image/jpeg;base64,"
	},
	{
		"uri":"data:image/jpeg;base64,"
	},
	{
		"uri":"data:image/jpeg;base64,"
	},
	{
		"uri":"data:image/jpeg;base64,"
	}],
	"materials":[{
		"pbrMetallicRoughness":{
			"baseColorTexture":{
				"index":0
			},
			"baseColorFactor":[0.8,
			0.8,
			0.8,
			1.0],
			"metallicFactor":1.0,
			"roughnessFactor":1.0
		},
		"emissiveFactor":[0.0,
		0.0,
		0.0],
		"alphaMode":"OPAQUE",
		"doubleSided":false,
		"name":"material2"
	},
	{
		"pbrMetallicRoughness":{
			"baseColorTexture":{
				"index":1
			},
			"baseColorFactor":[0.8,
			0.8,
			0.8,
			1.0],
			"metallicFactor":1.0,
			"roughnessFactor":1.0
		},
		"emissiveFactor":[0.0,
		0.0,
		0.0],
		"alphaMode":"OPAQUE",
		"doubleSided":false,
		"name":"material1"
	},
	{
		"pbrMetallicRoughness":{
			"baseColorTexture":{
				"index":2
			},
			"baseColorFactor":[0.8,
			0.8,
			0.8,
			1.0],
			"metallicFactor":1.0,
			"roughnessFactor":1.0
		},
		"emissiveFactor":[0.0,
		0.0,
		0.0],
		"alphaMode":"OPAQUE",
		"doubleSided":false,
		"name":"material3"
	},
	{
		"pbrMetallicRoughness":{
			"baseColorTexture":{
				"index":3
			},
			"baseColorFactor":[0.8,
			0.8,
			0.8,
			1.0],
			"metallicFactor":1.0,
			"roughnessFactor":1.0
		},
		"emissiveFactor":[0.0,
		0.0,
		0.0],
		"alphaMode":"OPAQUE",
		"doubleSided":false,
		"name":"material0"
	}]
}